<mxfile host="app.diagrams.net" modified="2023-05-12T06:55:27.804Z" agent="Mozilla/5.0 (Windows NT 10.0; Win64; x64) AppleWebKit/537.36 (KHTML, like Gecko) Chrome/112.0.0.0 Safari/537.36" etag="e9oszyS0AugHWiPR2KDA" version="21.2.9" type="github">
  <diagram name="第 1 页" id="RvbOkiFRiEU_Y_Q_C5jR">
    <mxGraphModel dx="2889" dy="1815" grid="1" gridSize="10" guides="1" tooltips="1" connect="1" arrows="1" fold="1" page="1" pageScale="1" pageWidth="827" pageHeight="1169" math="0" shadow="0">
      <root>
        <mxCell id="0" />
        <mxCell id="1" parent="0" />
        <mxCell id="TUClwBRdHytam8DGEJX_-2" value="&lt;font style=&quot;font-size: 18px;&quot;&gt;用户进入&lt;/font&gt;" style="rounded=1;whiteSpace=wrap;html=1;" vertex="1" parent="1">
          <mxGeometry x="-1200" y="-1140" width="160" height="60" as="geometry" />
        </mxCell>
        <mxCell id="TUClwBRdHytam8DGEJX_-6" value="&lt;font style=&quot;font-size: 18px;&quot;&gt;是否激活&lt;/font&gt;" style="rhombus;whiteSpace=wrap;html=1;" vertex="1" parent="1">
          <mxGeometry x="-1200" y="-975" width="160" height="80" as="geometry" />
        </mxCell>
        <mxCell id="TUClwBRdHytam8DGEJX_-7" value="" style="endArrow=classic;html=1;rounded=0;" edge="1" parent="1">
          <mxGeometry width="50" height="50" relative="1" as="geometry">
            <mxPoint x="-1120.71" y="-1080" as="sourcePoint" />
            <mxPoint x="-1120.71" y="-980" as="targetPoint" />
          </mxGeometry>
        </mxCell>
        <mxCell id="TUClwBRdHytam8DGEJX_-8" value="" style="endArrow=classic;html=1;rounded=0;" edge="1" parent="1">
          <mxGeometry width="50" height="50" relative="1" as="geometry">
            <mxPoint x="-1120.71" y="-880" as="sourcePoint" />
            <mxPoint x="-1120.71" y="-780" as="targetPoint" />
          </mxGeometry>
        </mxCell>
        <mxCell id="TUClwBRdHytam8DGEJX_-10" value="&lt;font style=&quot;font-size: 18px;&quot;&gt;是&lt;/font&gt;" style="text;html=1;align=center;verticalAlign=middle;resizable=0;points=[];autosize=1;strokeColor=none;fillColor=none;" vertex="1" parent="1">
          <mxGeometry x="-1120" y="-847" width="40" height="40" as="geometry" />
        </mxCell>
        <mxCell id="TUClwBRdHytam8DGEJX_-11" value="" style="endArrow=classic;html=1;rounded=0;" edge="1" parent="1">
          <mxGeometry width="50" height="50" relative="1" as="geometry">
            <mxPoint x="-1210.71" y="-933.71" as="sourcePoint" />
            <mxPoint x="-1350" y="-933.71" as="targetPoint" />
          </mxGeometry>
        </mxCell>
        <mxCell id="TUClwBRdHytam8DGEJX_-13" value="&lt;font style=&quot;font-size: 18px;&quot;&gt;否&lt;/font&gt;" style="text;html=1;align=center;verticalAlign=middle;resizable=0;points=[];autosize=1;strokeColor=none;fillColor=none;" vertex="1" parent="1">
          <mxGeometry x="-1295" y="-967" width="40" height="40" as="geometry" />
        </mxCell>
        <mxCell id="TUClwBRdHytam8DGEJX_-14" value="&lt;font style=&quot;font-size: 18px;&quot;&gt;进入个人中心&lt;/font&gt;" style="rounded=1;whiteSpace=wrap;html=1;" vertex="1" parent="1">
          <mxGeometry x="-1200" y="-770" width="160" height="60" as="geometry" />
        </mxCell>
        <mxCell id="TUClwBRdHytam8DGEJX_-15" value="&lt;font style=&quot;font-size: 18px;&quot;&gt;进入激活页&lt;/font&gt;" style="rounded=1;whiteSpace=wrap;html=1;" vertex="1" parent="1">
          <mxGeometry x="-1530" y="-965" width="160" height="60" as="geometry" />
        </mxCell>
      </root>
    </mxGraphModel>
  </diagram>
</mxfile>
